<?xml version="1.0" encoding="UTF-8" standalone="no"?>
<svg version="1.1" viewBox="0 0 1024 1024" xmlns="http://www.w3.org/2000/svg" xmlns:svg="http://www.w3.org/2000/svg">
  <title>(c) 2010 Tecsmith.com.au</title>
  <desc>Created by Vino Rodrigues</desc>
	<defs>
		<linearGradient id="gr" x1="0%" y1="0%" x2="100%" y2="50%">
			<stop offset="0%" style="stop-color: #fb0000; stop-opacity: 0.8" />
			<stop offset="100%" style="stop-color: #8c0000; stop-opacity: 0.8" />
		</linearGradient>
		<linearGradient id="gg" x1="0%" y1="0%" x2="100%" y2="50%">
			<stop offset="0%" style="stop-color: #00fb00; stop-opacity: 0.8" />
			<stop offset="100%" style="stop-color: #008c00; stop-opacity: 0.8" />
		</linearGradient>
		<linearGradient id="gb" x1="0%" y1="0%" x2="100%" y2="50%">
			<stop offset="0%" style="stop-color: #0000fb; stop-opacity: 0.8" />
			<stop offset="100%" style="stop-color: #00008c; stop-opacity: 0.8" />
		</linearGradient>
    <filter id="sh" x="-7.3%" y="-14.8%" width="114.7%" height="129.6%" filterUnits="objectBoundingBox">
      <feMorphology radius="20" operator="dilate" in="SourceAlpha" result="sso" />
      <feOffset dx="0" dy="0" in="sso" result="soo" />
      <feGaussianBlur stdDeviation="10" in="soo" result="sbo" />
      <feColorMatrix values="0 0 0 0 0.933333333   0 0 0 0 0.933333333   0 0 0 0 0.933333333  0 0 0 1 0" type="matrix" in="sbo" />
    </filter>
	</defs>
  <style>
    .dr, .dg, .db, .ln { stroke: none; stroke-linecap: round; stroke-linejoin: round; }
    .dr { fill: #c30000; fill: transparent; fill: url(#gr); }
    .dg { fill: #00c300; fill: transparent; fill: url(#gg); }
    .db { fill: #0000c3; fill: transparent; fill: url(#gb); }
    .ln { fill: #111; }
    .tr { fill: transparent; opacity: 0; } #s { opacity: 0; }
    @media( prefers-color-scheme: dark ) {
      .ln { fill: #222; }
      .tr { fill: #000; opacity: 1; } #s { opacity: 1; }
    }
  </style>
  <g id="s" fill="red">
    <path class="tr" filter="url(#sh)" d="M511,64.046875 C508.497948,64.046875 506.025052,64.584017 503.74805,65.621094 L112.375,243.83594 C106.219407,246.64065 102.2312,252.741523 102.129909,259.505238 C102.032417,266.268953 105.839637,272.484378 111.91016,275.46875 L503.2832,467.75 C508.149972,470.140776 513.850028,470.140776 518.7168,467.75 L910.08984,275.46875 C916.160363,272.484378 919.967583,266.268953 919.870091,259.505238 C919.7688,252.741523 915.780593,246.64065 909.625,243.83594 L518.25195,65.621094 C515.974948,64.584017 513.502052,64.046875 511,64.046875 Z" />
    <path class="tr" filter="url(#sh)" d="M79.173828,291.13672 C74.4418318,291.464747 70.045634,293.699408 66.991881,297.329006 C63.938128,300.958604 62.4883825,305.672254 62.974609,310.39062 L104.9082,716.54687 C105.462838,721.919612 108.467133,726.735275 113.04883,729.5957 L472.52539,953.95508 C477.94023,957.332489 484.764184,957.494826 490.3335,954.378724 C495.902817,951.262621 499.33453,945.362109 499.289506,938.98047 L496.1543,508.63281 C496.10647,502.063225 492.383511,496.073761 486.51367,493.12305 L88.240234,292.95703 C85.4359514,291.548397 82.3045055,290.91968 79.173828,291.13672 Z" />
    <path class="tr" filter="url(#sh)" d="M944.1543,291.2793 C940.599384,290.758355 936.97027,291.344112 933.75977,292.95703 L535.48633,493.12305 C529.616489,496.073761 525.89353,502.063225 525.8457,508.63281 L522.710494,938.98047 C522.66547,945.362109 526.097183,951.262621 531.6665,954.378724 C537.235816,957.494826 544.05977,957.332489 549.47461,953.95508 L908.95117,729.5957 C913.532867,726.735275 916.537162,721.919612 917.0918,716.54687 L959.02539,310.39062 C959.986651,301.06554 953.42967,292.638951 944.1543,291.2793 Z" />
  </g>
  <g id="r">
    <path class="dr" d="M 511,452.0432 902.3728,259.7616 511,81.5472 119.6272,259.7616 Z" />
    <path class="ln" d="m 511,64.046875 a 17.50175,17.50175 0 0 0 -7.25195,1.574219 L 112.375,243.83594 a 17.50175,17.50175 0 0 0 -0.46484,31.63281 L 503.2832,467.75 a 17.50175,17.50175 0 0 0 15.4336,0 L 910.08984,275.46875 A 17.50175,17.50175 0 0 0 909.625,243.83594 L 518.25195,65.621094 A 17.50175,17.50175 0 0 0 511,64.046875 Z M 511,100.77539 861.46484,260.36133 511,432.54492 160.53516,260.36133 Z" />
  </g>
  <g id="g">
    <path class="dg" d="M 478.6544,508.76 80.3824,308.5936 122.3152,714.7504 481.7904,939.1088 Z" />
    <path class="ln" d="m 79.173828,291.13672 a 17.50175,17.50175 0 0 0 -16.199219,19.2539 L 104.9082,716.54687 a 17.50175,17.50175 0 0 0 8.14063,13.04883 l 359.47656,224.35938 a 17.50175,17.50175 0 0 0 26.76367,-14.97461 L 496.1543,508.63281 a 17.50175,17.50175 0 0 0 -9.64063,-15.50976 L 88.240234,292.95703 a 17.50175,17.50175 0 0 0 -9.066406,-1.82031 z m 21.896482,47.4414 360.16211,181.01172 2.82617,387.82422 L 138.84375,704.4375 Z" />
  </g>
  <g id="b">
    <path class="db" d="M 543.3456,508.76 941.6176,308.5936 899.6848,714.7504 540.2096,939.1088 Z" />
    <path class="ln" d="m 944.1543,291.2793 a 17.50175,17.50175 0 0 0 -10.39453,1.67773 L 535.48633,493.12305 a 17.50175,17.50175 0 0 0 -9.64063,15.50976 l -3.13476,430.34766 a 17.50175,17.50175 0 0 0 26.76367,14.97461 L 908.95117,729.5957 a 17.50175,17.50175 0 0 0 8.14063,-13.04883 L 959.02539,310.39062 A 17.50175,17.50175 0 0 0 944.1543,291.2793 Z m -23.22461,47.29882 -37.77344,365.85938 -325.21484,202.97656 2.82617,-387.82422 z" />
  </g>
</svg>
