<svg xmlns="http://www.w3.org/2000/svg" version="1.1" viewBox="0 0 600 120">
<defs>
  <linearGradient id="a" x1="0%" x2="100%" y1="0%" y2="50%"><stop offset="0%" stop-color="#FB0000" stop-opacity=".8"/><stop offset="100%" stop-color="#8C0000" stop-opacity=".8"/></linearGradient>
  <linearGradient id="b" x1="0%" x2="100%" y1="0%" y2="50%"><stop offset="0%" stop-color="#00FB00" stop-opacity=".8"/><stop offset="100%" stop-color="#008C00" stop-opacity=".8"/></linearGradient>
  <linearGradient id="c" x1="0%" x2="100%" y1="0%" y2="50%"><stop offset="0%" stop-color="#0000FB" stop-opacity=".8"/><stop offset="100%" stop-color="#00008C" stop-opacity=".8"/></linearGradient>
</defs>
<style>
  .cbe { stroke: #111; } .txt { fill: #111; } #hdn { display: none; } .scbe { stroke: transparent; } .stxt { fill: transparent; }
  @media (prefers-color-scheme: dark) { .txt { fill: #eee; } .cbe { stroke: #111; } #hdn { display: initial; } .scbe { stroke: #eee; } .stxt { fill: #111; opacity: 0.8; } }
</style>
<g id="hdn" stroke-linecap="round" stroke-linejoin="round">
  <polygon class="scbe" stroke-width="6" fill-rule="nonzero" points="316 34.827 343.242 21.443 316 9.038 288.758 21.443"></polygon>
  <polygon class="scbe" stroke-width="6" fill-rule="nonzero" points="313.749 38.774 286.027 24.842 288.945 53.113 313.967 68.729"></polygon>
  <polygon class="scbe" stroke-width="6" fill-rule="nonzero" points="318.251 38.774 345.973 24.842 343.055 53.113 318.033 68.729"></polygon>
  <rect class="stxt" x="247.67" y="74.3" width="138.78" height="25.26" rx="5"></rect>
  <rect class="stxt" x="130.6" y="102.87" width="372.17" height="16.51" rx="5"></rect>
</g>
<g fill="none" fill-rule="evenodd" stroke="none" stroke-width="1">
  <g fill-rule="nonzero">
    <g class="cbe" stroke-linecap="round" stroke-linejoin="round" stroke-width="3">
      <path d="m30 25.827 27.242-13.384L30 .038 2.758 12.443z" fill="url(#a)" transform="translate(286 9)"/>
      <path d="M27.749 29.774.027 15.842l2.918 28.271 25.022 15.616z" fill="url(#b)" transform="translate(286 9)"/>
      <path d="m32.251 29.774 27.722-13.932-2.918 28.271-25.022 15.616z" fill="url(#c)" transform="translate(286 9)"/>
    </g>
    <path d="M259.855 89.799c.246.247.384.455.414.624a.533.533 0 0 1-.144.462c-.084.12-.21.253-.378.398a4.57 4.57 0 0 1-.639.462 3.476 3.476 0 0 1-.972.398 4.873 4.873 0 0 1-2.178.072c-.3-.06-.609-.171-.927-.334a3.049 3.049 0 0 1-.819-.643c-.234-.266-.426-.616-.576-1.05a4.829 4.829 0 0 1-.216-1.503v-3.62h-2.475a.286.286 0 0 1-.198-.073.29.29 0 0 1-.072-.2V83.48a.27.27 0 0 1 .072-.2.286.286 0 0 1 .198-.072h2.475v-2.534a.27.27 0 0 1 .072-.2.267.267 0 0 1 .198-.072h1.728c.084 0 .15.024.198.073a.27.27 0 0 1 .072.199v2.534h3.726c.084 0 .15.025.198.073a.27.27 0 0 1 .072.199v1.313a.29.29 0 0 1-.072.199.267.267 0 0 1-.198.072h-3.726v3.277c0 .706.159 1.204.477 1.494.318.283.711.425 1.179.425.6 0 1.17-.226 1.71-.679.114-.114.222-.16.324-.135.108.024.267.141.477.353Zm6.903-3.024c1.05.133 1.809.287 2.277.462 1.146.422 1.719 1.186 1.719 2.29 0 .875-.354 1.557-1.062 2.046-.708.489-1.74.733-3.096.733a7.909 7.909 0 0 1-1.575-.145 4.829 4.829 0 0 1-1.269-.416 2.452 2.452 0 0 1-.9-.751 2.263 2.263 0 0 1-.396-1.105c-.006-.084.015-.15.063-.199a.299.299 0 0 1 .207-.072h1.629c.144 0 .234.063.27.19.174.513.843.77 2.007.77 1.272 0 1.908-.345 1.908-1.033 0-.35-.162-.594-.486-.733-.318-.145-.858-.266-1.62-.362-.258-.03-.474-.058-.648-.082-.174-.03-.39-.07-.648-.117a4.382 4.382 0 0 1-.648-.181 19.677 19.677 0 0 1-.585-.236 1.874 1.874 0 0 1-.522-.344 4.062 4.062 0 0 1-.396-.443 1.823 1.823 0 0 1-.27-.589 2.93 2.93 0 0 1-.09-.742c0-.87.336-1.548 1.008-2.037.672-.495 1.65-.742 2.934-.742 1.128 0 2.055.196 2.781.588.732.386 1.14.978 1.224 1.775a.23.23 0 0 1-.072.199.267.267 0 0 1-.198.072h-1.62c-.144 0-.234-.063-.27-.19-.066-.217-.27-.39-.612-.516-.342-.133-.771-.2-1.287-.2-1.122 0-1.683.333-1.683.997 0 .35.147.603.441.76.3.15.795.269 1.485.353Zm6.687-1.575h8.46c.078 0 .141.024.189.072a.253.253 0 0 1 .081.2v1.33a.272.272 0 0 1-.081.2.255.255 0 0 1-.189.072h-8.46a.286.286 0 0 1-.198-.073.29.29 0 0 1-.072-.199v-1.33a.27.27 0 0 1 .072-.2.286.286 0 0 1 .198-.072Zm18-4.58c-.264.259-.582.389-.954.389s-.69-.13-.954-.39a1.312 1.312 0 0 1-.396-.96c0-.38.132-.7.396-.959.264-.265.582-.398.954-.398s.69.133.954.398c.264.26.396.58.396.96 0 .374-.132.694-.396.96Zm-3.726 14.945c-.39 0-.771-.04-1.143-.118a4.605 4.605 0 0 1-.945-.298 3.484 3.484 0 0 1-.666-.399c-.186-.139-.312-.274-.378-.407-.066-.133-.072-.244-.018-.335l.648-1.086c.096-.163.237-.184.423-.064.624.41 1.251.616 1.881.616.258 0 .495-.033.711-.1a1.84 1.84 0 0 0 .621-.317c.198-.144.354-.362.468-.651.114-.284.171-.625.171-1.023v-6.391h-3.942a.267.267 0 0 1-.198-.073.29.29 0 0 1-.072-.199v-1.33a.27.27 0 0 1 .072-.2.267.267 0 0 1 .198-.072h5.94c.084 0 .15.024.198.072a.27.27 0 0 1 .072.2v8.237c0 .592-.084 1.12-.252 1.584-.168.471-.387.848-.657 1.132a3.41 3.41 0 0 1-.954.715c-.36.193-.72.326-1.08.398-.354.073-.72.109-1.098.109Zm16.533-8.21c0 .325-.051.558-.153.696-.102.133-.321.2-.657.2l-5.895-.01c.048.713.327 1.265.837 1.657.51.392 1.179.589 2.007.589.768 0 1.461-.17 2.079-.507.138-.079.261-.1.369-.064.108.036.24.154.396.353.18.224.276.399.288.525.018.127-.045.266-.189.417-.336.332-.783.597-1.341.796-.558.2-1.176.3-1.854.3-1.428 0-2.58-.432-3.456-1.295-.87-.87-1.305-2.004-1.305-3.404 0-1.388.42-2.514 1.26-3.377.84-.863 1.944-1.294 3.312-1.294 1.332 0 2.382.41 3.15 1.23.768.822 1.152 1.884 1.152 3.187Zm-4.293-2.48c-.63 0-1.149.156-1.557.47-.402.314-.66.77-.774 1.367h4.617c-.084-.604-.327-1.062-.729-1.376-.402-.314-.921-.468-1.557-.462Zm11.7 2.154 3.78 4.725c.072.09.09.169.054.235-.036.06-.108.09-.216.09h-1.971a.408.408 0 0 1-.324-.162l-2.709-3.386-1.206 1.313v1.964a.256.256 0 0 1-.081.2.255.255 0 0 1-.189.072h-1.728a.286.286 0 0 1-.198-.073.27.27 0 0 1-.072-.199v-12.13a.27.27 0 0 1 .072-.2.286.286 0 0 1 .198-.072h1.728c.078 0 .141.025.189.073a.253.253 0 0 1 .081.199v7.35l3.33-3.765a.427.427 0 0 1 .324-.145h2.097c.12 0 .192.033.216.1.03.066.006.141-.072.226l-3.303 3.585Zm12.96-3.911h1.728c.102 0 .174.027.216.081.042.055.042.13 0 .227l-4.716 11.876c-.054.145-.162.218-.324.218h-1.728c-.102 0-.174-.027-.216-.082-.042-.054-.042-.13 0-.226l1.251-3.105-3.483-8.681c-.042-.097-.042-.172 0-.227.042-.054.114-.081.216-.081h1.728c.162 0 .27.072.324.217l2.34 6.165 2.34-6.165c.054-.145.162-.217.324-.217Zm12.492 8.962h-2.331c-.912 0-1.62-.266-2.124-.797-.504-.53-.756-1.261-.756-2.19V81.28h-2.997a.286.286 0 0 1-.198-.072.29.29 0 0 1-.072-.2v-1.33a.27.27 0 0 1 .072-.2.286.286 0 0 1 .198-.072h4.995c.084 0 .15.025.198.073a.27.27 0 0 1 .072.199v9.08c0 .452.126.808.378 1.068.252.253.603.38 1.053.38h1.512a.24.24 0 0 1 .189.081.243.243 0 0 1 .081.19v1.331a.256.256 0 0 1-.081.2.255.255 0 0 1-.189.072Zm11.07 0h-2.331c-.912 0-1.62-.266-2.124-.797-.504-.53-.756-1.261-.756-2.19V81.28h-2.997a.286.286 0 0 1-.198-.072.29.29 0 0 1-.072-.2v-1.33a.27.27 0 0 1 .072-.2.286.286 0 0 1 .198-.072h4.995c.084 0 .15.025.198.073a.27.27 0 0 1 .072.199v9.08c0 .452.126.808.378 1.068.252.253.603.38 1.053.38h1.512a.24.24 0 0 1 .189.081.243.243 0 0 1 .081.19v1.331a.256.256 0 0 1-.081.2.255.255 0 0 1-.189.072Zm2.754-6.88h8.46c.078 0 .141.024.189.072a.253.253 0 0 1 .081.2v1.33a.272.272 0 0 1-.081.2.255.255 0 0 1-.189.072h-8.46a.286.286 0 0 1-.198-.073.29.29 0 0 1-.072-.199v-1.33a.27.27 0 0 1 .072-.2.286.286 0 0 1 .198-.072Zm15.768-2.263c1.308 0 2.349.44 3.123 1.322.774.875 1.161 2.006 1.161 3.394 0 1.34-.354 2.45-1.062 3.331-.702.882-1.629 1.322-2.781 1.322-.726 0-1.338-.178-1.836-.534a2.807 2.807 0 0 1-1.044-1.376h-.225l-.135 1.412c-.018.181-.105.272-.261.272h-1.512a.286.286 0 0 1-.198-.073.27.27 0 0 1-.072-.199v-12.13a.27.27 0 0 1 .072-.2.286.286 0 0 1 .198-.072h1.728c.078 0 .141.025.189.073a.253.253 0 0 1 .081.199v4.327c.564-.712 1.422-1.068 2.574-1.068Zm-.306 7.26c.714 0 1.287-.232 1.719-.697.438-.47.657-1.098.657-1.883 0-.785-.219-1.41-.657-1.874-.432-.465-1.005-.697-1.719-.697-.72 0-1.296.232-1.728.697-.426.459-.639 1.083-.639 1.874 0 .79.213 1.418.639 1.883.432.465 1.008.697 1.728.697Zm11.061-3.422c1.05.133 1.809.287 2.277.462 1.146.422 1.719 1.186 1.719 2.29 0 .875-.354 1.557-1.062 2.046-.708.489-1.74.733-3.096.733a7.909 7.909 0 0 1-1.575-.145 4.829 4.829 0 0 1-1.269-.416 2.452 2.452 0 0 1-.9-.751 2.263 2.263 0 0 1-.396-1.105c-.006-.084.015-.15.063-.199a.299.299 0 0 1 .207-.072h1.629c.144 0 .234.063.27.19.174.513.843.77 2.007.77 1.272 0 1.908-.345 1.908-1.033 0-.35-.162-.594-.486-.733-.318-.145-.858-.266-1.62-.362-.258-.03-.474-.058-.648-.082-.174-.03-.39-.07-.648-.117a4.382 4.382 0 0 1-.648-.181 19.677 19.677 0 0 1-.585-.236 1.874 1.874 0 0 1-.522-.344 4.062 4.062 0 0 1-.396-.443 1.823 1.823 0 0 1-.27-.589 2.93 2.93 0 0 1-.09-.742c0-.87.336-1.548 1.008-2.037.672-.495 1.65-.742 2.934-.742 1.128 0 2.055.196 2.781.588.732.386 1.14.978 1.224 1.775a.23.23 0 0 1-.072.199.267.267 0 0 1-.198.072h-1.62c-.144 0-.234-.063-.27-.19-.066-.217-.27-.39-.612-.516-.342-.133-.771-.2-1.287-.2-1.122 0-1.683.333-1.683.997 0 .35.147.603.441.76.3.15.795.269 1.485.353Z" class="txt"/>
    <path d="M139.296 115h-1.212a.178.178 0 0 1-.132-.048.178.178 0 0 1-.048-.132v-6.468h-2.124a.178.178 0 0 1-.132-.048.178.178 0 0 1-.048-.132v-1.032c0-.056.016-.1.048-.132a.178.178 0 0 1 .132-.048h5.82c.056 0 .1.016.132.048a.178.178 0 0 1 .048.132v1.032c0 .056-.016.1-.048.132a.178.178 0 0 1-.132.048h-2.124v6.468c0 .056-.016.1-.048.132a.178.178 0 0 1-.132.048Zm9.732-3.132c0 .216-.034.37-.102.462-.068.088-.214.132-.438.132l-3.93-.006c.032.472.218.838.558 1.098.34.26.786.39 1.338.39.512 0 .974-.112 1.386-.336.092-.052.174-.066.246-.042.072.024.16.102.264.234.12.148.184.264.192.348.012.084-.03.176-.126.276-.224.22-.522.396-.894.528a3.675 3.675 0 0 1-1.236.198c-.952 0-1.72-.286-2.304-.858-.58-.576-.87-1.328-.87-2.256 0-.92.28-1.666.84-2.238.56-.572 1.296-.858 2.208-.858.888 0 1.588.272 2.1.816.512.544.768 1.248.768 2.112Zm-2.862-1.644c-.42 0-.766.104-1.038.312-.268.208-.44.51-.516.906h3.078c-.056-.4-.218-.704-.486-.912-.268-.208-.614-.31-1.038-.306Zm7.506 3.522c.576 0 1.042-.226 1.398-.678.072-.092.152-.108.24-.048l.804.546c.1.068.118.148.054.24-.26.412-.61.74-1.05.984-.44.24-.938.36-1.494.36-.892 0-1.632-.294-2.22-.882-.588-.588-.882-1.33-.882-2.226 0-.896.294-1.636.882-2.22.588-.588 1.328-.882 2.22-.882.556 0 1.054.122 1.494.366.44.24.79.566 1.05.978.064.092.044.174-.06.246l-.798.54c-.088.06-.168.044-.24-.048a1.695 1.695 0 0 0-1.398-.678c-.484 0-.886.158-1.206.474-.316.312-.474.72-.474 1.224s.158.914.474 1.23c.32.316.722.474 1.206.474Zm7.26-2.262c.7.088 1.206.19 1.518.306.764.28 1.146.786 1.146 1.518 0 .58-.236 1.032-.708 1.356-.472.324-1.16.486-2.064.486-.384 0-.734-.032-1.05-.096a3.232 3.232 0 0 1-.846-.276 1.632 1.632 0 0 1-.6-.498 1.495 1.495 0 0 1-.264-.732c-.004-.056.01-.1.042-.132a.2.2 0 0 1 .138-.048h1.086c.096 0 .156.042.18.126.116.34.562.51 1.338.51.848 0 1.272-.228 1.272-.684a.49.49 0 0 0-.324-.486c-.212-.096-.572-.176-1.08-.24-.172-.02-.316-.038-.432-.054l-.432-.078a2.935 2.935 0 0 1-.432-.12 13.154 13.154 0 0 1-.39-.156 1.25 1.25 0 0 1-.348-.228 2.697 2.697 0 0 1-.264-.294 1.205 1.205 0 0 1-.18-.39 1.928 1.928 0 0 1-.06-.492c0-.576.224-1.026.672-1.35.448-.328 1.1-.492 1.956-.492.752 0 1.37.13 1.854.39.488.256.76.648.816 1.176.004.056-.012.1-.048.132a.178.178 0 0 1-.132.048h-1.08c-.096 0-.156-.042-.18-.126-.044-.144-.18-.258-.408-.342-.228-.088-.514-.132-.858-.132-.748 0-1.122.22-1.122.66 0 .232.098.4.294.504.2.1.53.178.99.234Zm5.322 3.516h-1.014a.178.178 0 0 1-.132-.048.178.178 0 0 1-.048-.132v-5.58c0-.056.016-.1.048-.132a.178.178 0 0 1 .132-.048h.99c.112 0 .172.06.18.18l.03.654h.114c.164-.636.544-.954 1.14-.954.556 0 .926.318 1.11.954h.09c.18-.636.572-.954 1.176-.954.424 0 .744.154.96.462.22.304.33.752.33 1.344v4.074c0 .056-.016.1-.048.132a.178.178 0 0 1-.132.048h-1.014a.192.192 0 0 1-.132-.048.178.178 0 0 1-.048-.132v-3.84c0-.204-.05-.364-.15-.48-.1-.116-.242-.174-.426-.174-.18 0-.32.058-.42.174-.1.116-.15.276-.15.48v3.84c0 .056-.016.1-.048.132a.178.178 0 0 1-.132.048h-.9a.178.178 0 0 1-.132-.048.178.178 0 0 1-.048-.132v-3.84c0-.204-.05-.364-.15-.48a.525.525 0 0 0-.42-.174c-.184 0-.326.058-.426.174-.1.116-.15.276-.15.48v3.84c0 .056-.018.1-.054.132a.17.17 0 0 1-.126.048Zm9.282-7.338a.877.877 0 0 1-.636-.258.867.867 0 0 1-.264-.636c0-.252.088-.464.264-.636a.867.867 0 0 1 .636-.264c.252 0 .464.088.636.264a.854.854 0 0 1 .264.636c0 .248-.088.46-.264.636a.864.864 0 0 1-.636.258Zm1.734 6.096h.918c.056 0 .1.018.132.054a.17.17 0 0 1 .048.126v.882c0 .056-.016.1-.048.132a.178.178 0 0 1-.132.048h-1.512c-.584 0-1.03-.162-1.338-.486-.308-.324-.462-.782-.462-1.374v-2.838h-1.854a.192.192 0 0 1-.132-.048.192.192 0 0 1-.048-.132v-.882c0-.056.016-.1.048-.132a.192.192 0 0 1 .132-.048h3.186c.056 0 .1.016.132.048a.178.178 0 0 1 .048.132v3.624c0 .596.294.894.882.894Zm8.58-.27c.164.164.256.302.276.414a.352.352 0 0 1-.096.306c-.056.08-.14.168-.252.264-.108.096-.25.198-.426.306a2.325 2.325 0 0 1-.648.264 3.267 3.267 0 0 1-1.452.048c-.2-.04-.406-.114-.618-.222a2.031 2.031 0 0 1-.546-.426 2.053 2.053 0 0 1-.384-.696 3.184 3.184 0 0 1-.144-.996v-2.4h-1.65a.192.192 0 0 1-.132-.048.192.192 0 0 1-.048-.132v-.87c0-.056.016-.1.048-.132a.192.192 0 0 1 .132-.048h1.65v-1.68c0-.056.016-.1.048-.132a.178.178 0 0 1 .132-.048h1.152c.056 0 .1.016.132.048a.178.178 0 0 1 .048.132v1.68h2.484c.056 0 .1.016.132.048a.178.178 0 0 1 .048.132v.87a.192.192 0 0 1-.048.132.178.178 0 0 1-.132.048h-2.484v2.172c0 .468.106.798.318.99.212.188.474.282.786.282.4 0 .78-.15 1.14-.45.076-.076.148-.106.216-.09.072.016.178.094.318.234Zm5.19-4.548c.64 0 1.156.224 1.548.672.392.448.588 1.06.588 1.836v3.372c0 .056-.016.1-.048.132a.178.178 0 0 1-.132.048h-1.152a.178.178 0 0 1-.132-.048.178.178 0 0 1-.048-.132v-3.084c0-.432-.116-.772-.348-1.02-.228-.252-.55-.378-.966-.378-.412 0-.734.126-.966.378-.232.248-.348.588-.348 1.02v3.084c0 .056-.016.1-.048.132a.178.178 0 0 1-.132.048h-1.152a.178.178 0 0 1-.132-.048.178.178 0 0 1-.048-.132v-8.04c0-.056.016-.1.048-.132a.178.178 0 0 1 .132-.048h1.152c.056 0 .1.016.132.048a.178.178 0 0 1 .048.132v3.318h.186c.152-.34.382-.618.69-.834.312-.216.688-.324 1.128-.324Zm5.298-2.34h2.724a.17.17 0 0 1 .126.048.168.168 0 0 1 .054.132v.522c0 1.176-.078 2.102-.234 2.778-.024.088-.096.132-.216.132h-.834c-.124 0-.182-.064-.174-.192.072-.74.102-1.456.09-2.148h-1.536a.192.192 0 0 1-.132-.048.178.178 0 0 1-.048-.132v-.912c0-.056.016-.1.048-.132a.192.192 0 0 1 .132-.048Zm8.874 4.884c.7.088 1.206.19 1.518.306.764.28 1.146.786 1.146 1.518 0 .58-.236 1.032-.708 1.356-.472.324-1.16.486-2.064.486-.384 0-.734-.032-1.05-.096a3.232 3.232 0 0 1-.846-.276 1.632 1.632 0 0 1-.6-.498 1.495 1.495 0 0 1-.264-.732c-.004-.056.01-.1.042-.132a.2.2 0 0 1 .138-.048h1.086c.096 0 .156.042.18.126.116.34.562.51 1.338.51.848 0 1.272-.228 1.272-.684a.49.49 0 0 0-.324-.486c-.212-.096-.572-.176-1.08-.24-.172-.02-.316-.038-.432-.054l-.432-.078a2.935 2.935 0 0 1-.432-.12 13.154 13.154 0 0 1-.39-.156 1.25 1.25 0 0 1-.348-.228 2.697 2.697 0 0 1-.264-.294 1.205 1.205 0 0 1-.18-.39 1.928 1.928 0 0 1-.06-.492c0-.576.224-1.026.672-1.35.448-.328 1.1-.492 1.956-.492.752 0 1.37.13 1.854.39.488.256.76.648.816 1.176.004.056-.012.1-.048.132a.178.178 0 0 1-.132.048h-1.08c-.096 0-.156-.042-.18-.126-.044-.144-.18-.258-.408-.342-.228-.088-.514-.132-.858-.132-.748 0-1.122.22-1.122.66 0 .232.098.4.294.504.2.1.53.178.99.234Zm17.37-1.176h.744c.132 0 .188.064.168.192l-.156 1.044c-.016.112-.084.168-.204.168-.18 0-.43.004-.75.012-.216 1.332-.604 2.322-1.164 2.97-.56.644-1.342.966-2.346.966-.808 0-1.42-.192-1.836-.576-.412-.384-.618-.902-.618-1.554 0-.3.04-.584.12-.852.084-.268.234-.536.45-.804.216-.272.492-.508.828-.708.34-.204.784-.38 1.332-.528a9.808 9.808 0 0 1 1.884-.294l.27-1.992h-3.222c-.116 0-.168-.06-.156-.18l.144-1.032a.18.18 0 0 1 .06-.126.208.208 0 0 1 .144-.054h4.578c.132 0 .188.064.168.192l-.438 3.156Zm-3.564 3.864c.5 0 .888-.198 1.164-.594.276-.396.486-.98.63-1.752-.976.112-1.686.296-2.13.552-.44.256-.66.58-.66.972 0 .264.09.468.27.612.18.14.422.21.726.21Zm10.5-.648.36.498c.092.132.082.242-.03.33-.612.536-1.434.804-2.466.804-.936 0-1.664-.244-2.184-.732-.52-.488-.78-1.144-.78-1.968 0-.636.152-1.224.456-1.764.304-.54.724-.968 1.26-1.284a3.389 3.389 0 0 1 1.77-.48c.636 0 1.13.152 1.482.456.356.3.534.672.534 1.116 0 .252-.064.496-.192.732-.124.232-.328.468-.612.708-.284.236-.688.464-1.212.684-.52.216-1.144.41-1.872.582.264.48.77.72 1.518.72.652 0 1.204-.144 1.656-.432.132-.084.236-.074.312.03Zm-1.77-3.336c-.216 0-.43.044-.642.132a2.003 2.003 0 0 0-.582.366 1.98 1.98 0 0 0-.45.606c-.12.248-.192.52-.216.816.976-.26 1.664-.494 2.064-.702.404-.208.606-.432.606-.672a.473.473 0 0 0-.204-.39c-.132-.104-.324-.156-.576-.156Zm8.586-1.128h1.35c.076 0 .124.034.144.102.024.064.008.122-.048.174l-2.616 2.34.504 1.296c.06.156.11.278.15.366.044.084.1.176.168.276.068.1.146.172.234.216.088.044.19.066.306.066.16 0 .344-.05.552-.15.044-.028.1-.03.168-.006.068.02.114.072.138.156l.168.552c.052.168-.052.332-.312.492-.26.16-.584.24-.972.24-.8 0-1.374-.424-1.722-1.272l-.498-1.236-.834.75-.204 1.41c-.016.112-.08.168-.192.168h-1.14c-.128 0-.184-.064-.168-.192l1.146-8.04c.016-.112.08-.168.192-.168h1.146c.06 0 .104.018.132.054.032.032.044.078.036.138l-.678 4.716 2.616-2.358a.33.33 0 0 1 .234-.09Zm4.518 8.316c-.86 0-1.55-.176-2.07-.528-.076-.052-.086-.136-.03-.252l.318-.696c.052-.112.134-.142.246-.09a3.7 3.7 0 0 0 1.488.324c1.196 0 1.874-.516 2.034-1.548l.258-1.632h-.126c-.252.552-.566.994-.942 1.326a1.907 1.907 0 0 1-1.29.492c-.528 0-.934-.196-1.218-.588-.28-.392-.354-.936-.222-1.632l.324-1.686c.064-.236.068-.42.012-.552-.052-.132-.196-.172-.432-.12-.084.02-.148 0-.192-.06-.04-.064-.048-.162-.024-.294.04-.236.154-.438.342-.606.192-.172.424-.258.696-.258.384 0 .69.146.918.438.228.288.298.674.21 1.158l-.294 1.578c-.08.436-.064.77.048 1.002a.584.584 0 0 0 .558.342c.452 0 .872-.366 1.26-1.098.388-.736.684-1.792.888-3.168.016-.112.08-.168.192-.168h1.14c.128 0 .184.064.168.192l-.774 5.412a3.591 3.591 0 0 1-.222.84 2.866 2.866 0 0 1-.366.66c-.14.184-.302.346-.486.486-.18.144-.366.26-.558.348a3.323 3.323 0 0 1-.618.222c-.216.06-.424.1-.624.12-.2.024-.404.036-.612.036Zm10.818-3.912.318.636c.048.092.036.174-.036.246-.2.2-.504.386-.912.558a3.579 3.579 0 0 1-1.374.252c-.256 0-.498-.026-.726-.078a2.34 2.34 0 0 1-.654-.264 1.782 1.782 0 0 1-.522-.486 1.983 1.983 0 0 1-.306-.756 3.369 3.369 0 0 1-.018-1.05l-1.194.42c-.056.02-.1.01-.132-.03a.22.22 0 0 1-.036-.162l.132-.96c.016-.104.082-.176.198-.216l1.236-.426.408-2.778c.052-.344.136-.648.252-.912.12-.268.256-.486.408-.654a2.15 2.15 0 0 1 1.134-.636c.2-.044.414-.066.642-.066.7 0 1.242.194 1.626.582.384.388.576.892.576 1.512 0 .34-.062.678-.186 1.014-.124.332-.312.66-.564.984-.252.32-.59.62-1.014.9-.42.28-.908.516-1.464.708l-.45.156-.084.552c-.072.476-.004.816.204 1.02.212.204.492.306.84.306.476 0 .944-.15 1.404-.45.128-.08.226-.054.294.078Zm-1.188-6.036a.778.778 0 0 0-.618.27c-.156.176-.266.466-.33.87l-.312 2.028c.684-.28 1.194-.62 1.53-1.02.336-.404.504-.818.504-1.242 0-.268-.062-.486-.186-.654-.124-.168-.32-.252-.588-.252Zm8.568 6.036.318.636c.048.092.036.174-.036.246-.2.2-.504.386-.912.558a3.579 3.579 0 0 1-1.374.252c-.256 0-.498-.026-.726-.078a2.34 2.34 0 0 1-.654-.264 1.782 1.782 0 0 1-.522-.486 1.983 1.983 0 0 1-.306-.756 3.369 3.369 0 0 1-.018-1.05l-1.194.42c-.056.02-.1.01-.132-.03a.22.22 0 0 1-.036-.162l.132-.96c.016-.104.082-.176.198-.216l1.236-.426.408-2.778c.052-.344.136-.648.252-.912.12-.268.256-.486.408-.654a2.15 2.15 0 0 1 1.134-.636c.2-.044.414-.066.642-.066.7 0 1.242.194 1.626.582.384.388.576.892.576 1.512 0 .34-.062.678-.186 1.014-.124.332-.312.66-.564.984-.252.32-.59.62-1.014.9-.42.28-.908.516-1.464.708l-.45.156-.084.552c-.072.476-.004.816.204 1.02.212.204.492.306.84.306.476 0 .944-.15 1.404-.45.128-.08.226-.054.294.078Zm-1.188-6.036a.778.778 0 0 0-.618.27c-.156.176-.266.466-.33.87l-.312 2.028c.684-.28 1.194-.62 1.53-1.02.336-.404.504-.818.504-1.242 0-.268-.062-.486-.186-.654-.124-.168-.32-.252-.588-.252Zm17.168 6.06c.164.164.256.302.276.414a.352.352 0 0 1-.096.306c-.056.08-.14.168-.252.264-.108.096-.25.198-.426.306a2.325 2.325 0 0 1-.648.264 3.267 3.267 0 0 1-1.452.048c-.2-.04-.406-.114-.618-.222a2.031 2.031 0 0 1-.546-.426 2.053 2.053 0 0 1-.384-.696 3.184 3.184 0 0 1-.144-.996v-2.4h-1.65a.192.192 0 0 1-.132-.048.192.192 0 0 1-.048-.132v-.87c0-.056.016-.1.048-.132a.192.192 0 0 1 .132-.048h1.65v-1.68c0-.056.016-.1.048-.132a.178.178 0 0 1 .132-.048h1.152c.056 0 .1.016.132.048a.178.178 0 0 1 .048.132v1.68h2.484c.056 0 .1.016.132.048a.178.178 0 0 1 .048.132v.87a.192.192 0 0 1-.048.132.178.178 0 0 1-.132.048h-2.484v2.172c0 .468.106.798.318.99.212.188.474.282.786.282.4 0 .78-.15 1.14-.45.076-.076.148-.106.216-.09.072.016.178.094.318.234Zm5.19-4.548c.64 0 1.156.224 1.548.672.392.448.588 1.06.588 1.836v3.372c0 .056-.016.1-.048.132a.178.178 0 0 1-.132.048h-1.152a.178.178 0 0 1-.132-.048.178.178 0 0 1-.048-.132v-3.084c0-.432-.116-.772-.348-1.02-.228-.252-.55-.378-.966-.378-.412 0-.734.126-.966.378-.232.248-.348.588-.348 1.02v3.084c0 .056-.016.1-.048.132a.178.178 0 0 1-.132.048h-1.152a.178.178 0 0 1-.132-.048.178.178 0 0 1-.048-.132v-8.04c0-.056.016-.1.048-.132a.178.178 0 0 1 .132-.048h1.152c.056 0 .1.016.132.048a.178.178 0 0 1 .048.132v3.318h.186c.152-.34.382-.618.69-.834.312-.216.688-.324 1.128-.324Zm9.648 2.928c0 .216-.034.37-.102.462-.068.088-.214.132-.438.132l-3.93-.006c.032.472.218.838.558 1.098.34.26.786.39 1.338.39.512 0 .974-.112 1.386-.336.092-.052.174-.066.246-.042.072.024.16.102.264.234.12.148.184.264.192.348.012.084-.03.176-.126.276-.224.22-.522.396-.894.528a3.675 3.675 0 0 1-1.236.198c-.952 0-1.72-.286-2.304-.858-.58-.576-.87-1.328-.87-2.256 0-.92.28-1.666.84-2.238.56-.572 1.296-.858 2.208-.858.888 0 1.588.272 2.1.816.512.544.768 1.248.768 2.112Zm-2.862-1.644c-.42 0-.766.104-1.038.312-.268.208-.44.51-.516.906h3.078c-.056-.4-.218-.704-.486-.912-.268-.208-.614-.31-1.038-.306Zm5.328 4.776h-1.014a.178.178 0 0 1-.132-.048.178.178 0 0 1-.048-.132v-5.58c0-.056.016-.1.048-.132a.178.178 0 0 1 .132-.048h.99c.112 0 .172.06.18.18l.03.654h.114c.164-.636.544-.954 1.14-.954.556 0 .926.318 1.11.954h.09c.18-.636.572-.954 1.176-.954.424 0 .744.154.96.462.22.304.33.752.33 1.344v4.074c0 .056-.016.1-.048.132a.178.178 0 0 1-.132.048h-1.014a.192.192 0 0 1-.132-.048.178.178 0 0 1-.048-.132v-3.84c0-.204-.05-.364-.15-.48-.1-.116-.242-.174-.426-.174-.18 0-.32.058-.42.174-.1.116-.15.276-.15.48v3.84c0 .056-.016.1-.048.132a.178.178 0 0 1-.132.048h-.9a.178.178 0 0 1-.132-.048.178.178 0 0 1-.048-.132v-3.84c0-.204-.05-.364-.15-.48a.525.525 0 0 0-.42-.174c-.184 0-.326.058-.426.174-.1.116-.15.276-.15.48v3.84c0 .056-.018.1-.054.132a.17.17 0 0 1-.126.048Zm12.294-3.132c0 .216-.034.37-.102.462-.068.088-.214.132-.438.132l-3.93-.006c.032.472.218.838.558 1.098.34.26.786.39 1.338.39.512 0 .974-.112 1.386-.336.092-.052.174-.066.246-.042.072.024.16.102.264.234.12.148.184.264.192.348.012.084-.03.176-.126.276-.224.22-.522.396-.894.528a3.675 3.675 0 0 1-1.236.198c-.952 0-1.72-.286-2.304-.858-.58-.576-.87-1.328-.87-2.256 0-.92.28-1.666.84-2.238.56-.572 1.296-.858 2.208-.858.888 0 1.588.272 2.1.816.512.544.768 1.248.768 2.112Zm-2.862-1.644c-.42 0-.766.104-1.038.312-.268.208-.44.51-.516.906h3.078c-.056-.4-.218-.704-.486-.912-.268-.208-.614-.31-1.038-.306Zm14.976-1.284c.872 0 1.566.292 2.082.876.516.58.774 1.33.774 2.25 0 .888-.236 1.624-.708 2.208-.468.584-1.086.876-1.854.876-.484 0-.892-.118-1.224-.354a1.862 1.862 0 0 1-.696-.912h-.15l-.09.936c-.012.12-.07.18-.174.18h-1.008a.192.192 0 0 1-.132-.048.178.178 0 0 1-.048-.132v-8.04c0-.056.016-.1.048-.132a.192.192 0 0 1 .132-.048h1.152a.17.17 0 0 1 .126.048.168.168 0 0 1 .054.132v2.868c.376-.472.948-.708 1.716-.708Zm-.204 4.812c.476 0 .858-.154 1.146-.462.292-.312.438-.728.438-1.248s-.146-.934-.438-1.242c-.288-.308-.67-.462-1.146-.462-.48 0-.864.154-1.152.462-.284.304-.426.718-.426 1.242s.142.94.426 1.248c.288.308.672.462 1.152.462Zm8.766-4.692h1.152c.056 0 .1.016.132.048a.178.178 0 0 1 .048.132v5.58c0 .056-.016.1-.048.132a.178.178 0 0 1-.132.048h-1.104c-.112 0-.172-.06-.18-.18l-.048-.858h-.186c-.152.34-.384.618-.696.834-.308.216-.682.324-1.122.324-.64 0-1.156-.224-1.548-.672-.392-.448-.588-1.06-.588-1.836v-3.372c0-.056.016-.1.048-.132a.178.178 0 0 1 .132-.048h1.152c.056 0 .1.016.132.048a.178.178 0 0 1 .048.132v3.084c0 .432.114.774.342 1.026.232.248.556.372.972.372.412 0 .734-.124.966-.372.232-.252.348-.594.348-1.026v-3.084c0-.056.016-.1.048-.132a.178.178 0 0 1 .132-.048Zm5.832-1.398a.877.877 0 0 1-.636-.258.867.867 0 0 1-.264-.636c0-.252.088-.464.264-.636a.867.867 0 0 1 .636-.264c.252 0 .464.088.636.264a.854.854 0 0 1 .264.636c0 .248-.088.46-.264.636a.864.864 0 0 1-.636.258Zm1.734 6.096h.918c.056 0 .1.018.132.054a.17.17 0 0 1 .048.126v.882c0 .056-.016.1-.048.132a.178.178 0 0 1-.132.048h-1.512c-.584 0-1.03-.162-1.338-.486-.308-.324-.462-.782-.462-1.374v-2.838h-1.854a.192.192 0 0 1-.132-.048.192.192 0 0 1-.048-.132v-.882c0-.056.016-.1.048-.132a.192.192 0 0 1 .132-.048h3.186c.056 0 .1.016.132.048a.178.178 0 0 1 .048.132v3.624c0 .596.294.894.882.894Zm8.424 1.242h-1.554c-.608 0-1.08-.176-1.416-.528-.336-.352-.504-.836-.504-1.452v-5.178h-1.998a.192.192 0 0 1-.132-.048.192.192 0 0 1-.048-.132v-.882c0-.056.016-.1.048-.132a.192.192 0 0 1 .132-.048h3.33c.056 0 .1.016.132.048a.178.178 0 0 1 .048.132v6.018c0 .3.084.536.252.708.168.168.402.252.702.252h1.008a.16.16 0 0 1 .126.054.16.16 0 0 1 .054.126v.882c0 .056-.018.1-.054.132a.17.17 0 0 1-.126.048Zm7.536-1.512c.164.164.256.302.276.414a.352.352 0 0 1-.096.306c-.056.08-.14.168-.252.264-.108.096-.25.198-.426.306a2.325 2.325 0 0 1-.648.264 3.267 3.267 0 0 1-1.452.048c-.2-.04-.406-.114-.618-.222a2.031 2.031 0 0 1-.546-.426 2.053 2.053 0 0 1-.384-.696 3.184 3.184 0 0 1-.144-.996v-2.4h-1.65a.192.192 0 0 1-.132-.048.192.192 0 0 1-.048-.132v-.87c0-.056.016-.1.048-.132a.192.192 0 0 1 .132-.048h1.65v-1.68c0-.056.016-.1.048-.132a.178.178 0 0 1 .132-.048h1.152c.056 0 .1.016.132.048a.178.178 0 0 1 .048.132v1.68h2.484c.056 0 .1.016.132.048a.178.178 0 0 1 .048.132v.87a.192.192 0 0 1-.048.132.178.178 0 0 1-.132.048h-2.484v2.172c0 .468.106.798.318.99.212.188.474.282.786.282.4 0 .78-.15 1.14-.45.076-.076.148-.106.216-.09.072.016.178.094.318.234Zm14.07.774c-.58.592-1.31.888-2.19.888-.88 0-1.61-.296-2.19-.888-.576-.592-.864-1.332-.864-2.22 0-.884.288-1.622.864-2.214.58-.592 1.31-.888 2.19-.888.88 0 1.61.296 2.19.888.58.592.87 1.33.87 2.214 0 .884-.29 1.624-.87 2.22Zm-3.33-.99c.3.316.68.474 1.14.474.46 0 .838-.158 1.134-.474.3-.316.45-.726.45-1.23s-.148-.912-.444-1.224c-.296-.316-.676-.474-1.14-.474-.464 0-.844.158-1.14.474-.296.312-.444.72-.444 1.224s.148.914.444 1.23Zm9.21-4.332c.64 0 1.156.224 1.548.672.392.448.588 1.06.588 1.836v3.372c0 .056-.016.1-.048.132a.178.178 0 0 1-.132.048h-1.152a.178.178 0 0 1-.132-.048.178.178 0 0 1-.048-.132v-3.084c0-.432-.116-.772-.348-1.02-.228-.252-.55-.378-.966-.378-.412 0-.734.126-.966.378-.232.248-.348.588-.348 1.02v3.084c0 .056-.016.1-.048.132a.178.178 0 0 1-.132.048h-1.152a.178.178 0 0 1-.132-.048.178.178 0 0 1-.048-.132v-5.58c0-.056.016-.1.048-.132a.178.178 0 0 1 .132-.048h1.104c.112 0 .172.06.18.18l.048.858h.186c.152-.34.382-.618.69-.834.312-.216.688-.324 1.128-.324Zm14.172 6.06h-2.874a.192.192 0 0 1-.132-.048.178.178 0 0 1-.048-.132v-7.68c0-.056.016-.1.048-.132a.192.192 0 0 1 .132-.048h2.988c.432 0 .808.052 1.128.156.324.104.578.25.762.438.184.184.318.392.402.624.088.228.132.48.132.756 0 .424-.106.786-.318 1.086-.212.3-.548.498-1.008.594v.12c1.168.164 1.752.838 1.752 2.022 0 .74-.234 1.3-.702 1.68-.468.376-1.222.564-2.262.564Zm-1.488-6.648v1.758h1.452c.392 0 .672-.076.84-.228.172-.152.258-.384.258-.696 0-.3-.084-.514-.252-.642-.164-.128-.446-.192-.846-.192h-1.452Zm0 3.066v2.19h1.524c.484 0 .83-.084 1.038-.252.212-.168.318-.442.318-.822 0-.372-.106-.65-.318-.834-.212-.188-.558-.282-1.038-.282h-1.524Zm10.956 2.844c-.58.592-1.31.888-2.19.888-.88 0-1.61-.296-2.19-.888-.576-.592-.864-1.332-.864-2.22 0-.884.288-1.622.864-2.214.58-.592 1.31-.888 2.19-.888.88 0 1.61.296 2.19.888.58.592.87 1.33.87 2.214 0 .884-.29 1.624-.87 2.22Zm-3.33-.99c.3.316.68.474 1.14.474.46 0 .838-.158 1.134-.474.3-.316.45-.726.45-1.23s-.148-.912-.444-1.224c-.296-.316-.676-.474-1.14-.474-.464 0-.844.158-1.14.474-.296.312-.444.72-.444 1.224s.148.914.444 1.23Zm10.71.99c-.58.592-1.31.888-2.19.888-.88 0-1.61-.296-2.19-.888-.576-.592-.864-1.332-.864-2.22 0-.884.288-1.622.864-2.214.58-.592 1.31-.888 2.19-.888.88 0 1.61.296 2.19.888.58.592.87 1.33.87 2.214 0 .884-.29 1.624-.87 2.22Zm-3.33-.99c.3.316.68.474 1.14.474.46 0 .838-.158 1.134-.474.3-.316.45-.726.45-1.23s-.148-.912-.444-1.224c-.296-.316-.676-.474-1.14-.474-.464 0-.844.158-1.14.474-.296.312-.444.72-.444 1.224s.148.914.444 1.23Zm11.4.216c.164.164.256.302.276.414a.352.352 0 0 1-.096.306c-.056.08-.14.168-.252.264-.108.096-.25.198-.426.306a2.325 2.325 0 0 1-.648.264 3.267 3.267 0 0 1-1.452.048c-.2-.04-.406-.114-.618-.222a2.031 2.031 0 0 1-.546-.426 2.053 2.053 0 0 1-.384-.696 3.184 3.184 0 0 1-.144-.996v-2.4h-1.65a.192.192 0 0 1-.132-.048.192.192 0 0 1-.048-.132v-.87c0-.056.016-.1.048-.132a.192.192 0 0 1 .132-.048h1.65v-1.68c0-.056.016-.1.048-.132a.178.178 0 0 1 .132-.048h1.152c.056 0 .1.016.132.048a.178.178 0 0 1 .048.132v1.68h2.484c.056 0 .1.016.132.048a.178.178 0 0 1 .048.132v.87a.192.192 0 0 1-.048.132.178.178 0 0 1-.132.048h-2.484v2.172c0 .468.106.798.318.99.212.188.474.282.786.282.4 0 .78-.15 1.14-.45.076-.076.148-.106.216-.09.072.016.178.094.318.234Zm4.602-2.004c.7.088 1.206.19 1.518.306.764.28 1.146.786 1.146 1.518 0 .58-.236 1.032-.708 1.356-.472.324-1.16.486-2.064.486-.384 0-.734-.032-1.05-.096a3.232 3.232 0 0 1-.846-.276 1.632 1.632 0 0 1-.6-.498 1.495 1.495 0 0 1-.264-.732c-.004-.056.01-.1.042-.132a.2.2 0 0 1 .138-.048h1.086c.096 0 .156.042.18.126.116.34.562.51 1.338.51.848 0 1.272-.228 1.272-.684a.49.49 0 0 0-.324-.486c-.212-.096-.572-.176-1.08-.24-.172-.02-.316-.038-.432-.054l-.432-.078a2.935 2.935 0 0 1-.432-.12 13.154 13.154 0 0 1-.39-.156 1.25 1.25 0 0 1-.348-.228 2.697 2.697 0 0 1-.264-.294 1.205 1.205 0 0 1-.18-.39 1.928 1.928 0 0 1-.06-.492c0-.576.224-1.026.672-1.35.448-.328 1.1-.492 1.956-.492.752 0 1.37.13 1.854.39.488.256.76.648.816 1.176.004.056-.012.1-.048.132a.178.178 0 0 1-.132.048h-1.08c-.096 0-.156-.042-.18-.126-.044-.144-.18-.258-.408-.342-.228-.088-.514-.132-.858-.132-.748 0-1.122.22-1.122.66 0 .232.098.4.294.504.2.1.53.178.99.234Zm10.158 2.004c.164.164.256.302.276.414a.352.352 0 0 1-.096.306c-.056.08-.14.168-.252.264-.108.096-.25.198-.426.306a2.325 2.325 0 0 1-.648.264 3.267 3.267 0 0 1-1.452.048c-.2-.04-.406-.114-.618-.222a2.031 2.031 0 0 1-.546-.426 2.053 2.053 0 0 1-.384-.696 3.184 3.184 0 0 1-.144-.996v-2.4h-1.65a.192.192 0 0 1-.132-.048.192.192 0 0 1-.048-.132v-.87c0-.056.016-.1.048-.132a.192.192 0 0 1 .132-.048h1.65v-1.68c0-.056.016-.1.048-.132a.178.178 0 0 1 .132-.048h1.152c.056 0 .1.016.132.048a.178.178 0 0 1 .048.132v1.68h2.484c.056 0 .1.016.132.048a.178.178 0 0 1 .048.132v.87a.192.192 0 0 1-.048.132.178.178 0 0 1-.132.048h-2.484v2.172c0 .468.106.798.318.99.212.188.474.282.786.282.4 0 .78-.15 1.14-.45.076-.076.148-.106.216-.09.072.016.178.094.318.234Zm5.49-4.548c.628 0 1.132.2 1.512.6.384.396.576.892.576 1.488 0 .28-.046.478-.138.594-.092.116-.226.174-.402.174h-.666c-.172 0-.26-.076-.264-.228a1.533 1.533 0 0 0-.126-.594.923.923 0 0 0-.3-.384 1.296 1.296 0 0 0-.396-.192c-.14-.04-.294-.06-.462-.06-.468 0-.836.15-1.104.45-.268.3-.402.752-.402 1.356v2.676c0 .056-.016.1-.048.132a.178.178 0 0 1-.132.048h-1.152a.178.178 0 0 1-.132-.048.178.178 0 0 1-.048-.132v-5.58c0-.056.016-.1.048-.132a.178.178 0 0 1 .132-.048h1.104c.108 0 .168.06.18.18l.048 1.02h.21c.144-.4.386-.72.726-.96.344-.24.756-.36 1.236-.36Zm9.228 5.028c.06.044.104.08.132.108a.28.28 0 0 1 .072.114c.02.052.03.114.03.186v.204c0 .34-.23.51-.69.51-.312 0-.572-.088-.78-.264-.204-.18-.306-.442-.306-.786v-.126h-.096c-.12.348-.348.642-.684.882-.336.236-.772.354-1.308.354h-.3c-.592 0-1.058-.154-1.398-.462-.34-.312-.51-.75-.51-1.314 0-1.068.624-1.642 1.872-1.722l2.262-.15v-.318c0-.392-.088-.66-.264-.804-.172-.148-.486-.222-.942-.222-.388 0-.678.048-.87.144-.188.096-.298.26-.33.492-.012.084-.068.126-.168.126h-1.092c-.124 0-.182-.06-.174-.18.028-1.2.918-1.8 2.67-1.8.656 0 1.18.088 1.572.264.396.176.674.428.834.756.164.328.246.754.246 1.278v2.028c0 .224.016.382.048.474a.514.514 0 0 0 .174.228Zm-3.402.03h.18c.264 0 .506-.04.726-.12.224-.08.412-.212.564-.396.152-.188.228-.414.228-.678v-.354l-1.89.138c-.516.04-.774.27-.774.69 0 .48.322.72.966.72Zm8.4-5.058c.812 0 1.456.292 1.932.876.476.58.714 1.322.714 2.226 0 .592-.104 1.122-.312 1.59a2.558 2.558 0 0 1-.918 1.11c-.404.272-.876.408-1.416.408-.432 0-.794-.086-1.086-.258a1.714 1.714 0 0 1-.666-.696h-.162v2.904c0 .056-.016.1-.048.132a.178.178 0 0 1-.132.048h-1.11a.192.192 0 0 1-.132-.048.178.178 0 0 1-.048-.132v-7.86c0-.056.016-.1.048-.132a.192.192 0 0 1 .132-.048h1.152a.17.17 0 0 1 .126.048.168.168 0 0 1 .054.132v.594h.12c.152-.268.374-.484.666-.648.296-.164.658-.246 1.086-.246Zm-.384 4.812c.472 0 .85-.154 1.134-.462.284-.308.426-.724.426-1.248s-.142-.938-.426-1.242c-.284-.308-.662-.462-1.134-.462-.476 0-.854.154-1.134.462-.28.304-.42.718-.42 1.242s.14.94.42 1.248c.28.308.658.462 1.134.462Zm4.488-3.312h5.64a.17.17 0 0 1 .126.048.168.168 0 0 1 .054.132v.882a.18.18 0 0 1-.054.132.17.17 0 0 1-.126.048h-5.64a.192.192 0 0 1-.132-.048.192.192 0 0 1-.048-.132v-.882c0-.056.016-.1.048-.132a.192.192 0 0 1 .132-.048Zm9.978 4.56h-2.52a.178.178 0 0 1-.132-.048.178.178 0 0 1-.048-.132v-7.68c0-.056.016-.1.048-.132a.178.178 0 0 1 .132-.048h2.52c.516 0 .97.066 1.362.198.392.132.714.312.966.54.252.228.458.514.618.858.16.344.272.712.336 1.104.064.392.096.832.096 1.32 0 .488-.032.928-.096 1.32s-.176.76-.336 1.104c-.16.344-.366.63-.618.858a2.706 2.706 0 0 1-.966.54 4.267 4.267 0 0 1-1.362.198Zm-1.134-6.648v5.256h1.08c.304 0 .564-.04.78-.12.22-.08.396-.19.528-.33a1.49 1.49 0 0 0 .324-.546c.08-.228.134-.468.162-.72.028-.256.042-.56.042-.912s-.014-.654-.042-.906a3.153 3.153 0 0 0-.162-.72 1.484 1.484 0 0 0-.324-.552 1.34 1.34 0 0 0-.528-.33 2.252 2.252 0 0 0-.78-.12h-1.08Zm11.574 5.616c.06.044.104.08.132.108a.28.28 0 0 1 .072.114c.02.052.03.114.03.186v.204c0 .34-.23.51-.69.51-.312 0-.572-.088-.78-.264-.204-.18-.306-.442-.306-.786v-.126h-.096c-.12.348-.348.642-.684.882-.336.236-.772.354-1.308.354h-.3c-.592 0-1.058-.154-1.398-.462-.34-.312-.51-.75-.51-1.314 0-1.068.624-1.642 1.872-1.722l2.262-.15v-.318c0-.392-.088-.66-.264-.804-.172-.148-.486-.222-.942-.222-.388 0-.678.048-.87.144-.188.096-.298.26-.33.492-.012.084-.068.126-.168.126h-1.092c-.124 0-.182-.06-.174-.18.028-1.2.918-1.8 2.67-1.8.656 0 1.18.088 1.572.264.396.176.674.428.834.756.164.328.246.754.246 1.278v2.028c0 .224.016.382.048.474a.514.514 0 0 0 .174.228Zm-3.402.03h.18c.264 0 .506-.04.726-.12.224-.08.412-.212.564-.396.152-.188.228-.414.228-.678v-.354l-1.89.138c-.516.04-.774.27-.774.69 0 .48.322.72.966.72Zm8.934-5.058c.628 0 1.132.2 1.512.6.384.396.576.892.576 1.488 0 .28-.046.478-.138.594-.092.116-.226.174-.402.174h-.666c-.172 0-.26-.076-.264-.228a1.533 1.533 0 0 0-.126-.594.923.923 0 0 0-.3-.384 1.296 1.296 0 0 0-.396-.192c-.14-.04-.294-.06-.462-.06-.468 0-.836.15-1.104.45-.268.3-.402.752-.402 1.356v2.676c0 .056-.016.1-.048.132a.178.178 0 0 1-.132.048h-1.152a.178.178 0 0 1-.132-.048.178.178 0 0 1-.048-.132v-5.58c0-.056.016-.1.048-.132a.178.178 0 0 1 .132-.048H470c.108 0 .168.06.18.18l.048 1.02h.21c.144-.4.386-.72.726-.96.344-.24.756-.36 1.236-.36Zm6.906 2.712 2.52 3.132c.048.06.06.112.036.156-.024.04-.072.06-.144.06h-1.314a.273.273 0 0 1-.216-.108l-1.806-2.244-.804.87v1.302c0 .056-.018.1-.054.132a.17.17 0 0 1-.126.048h-1.152a.192.192 0 0 1-.132-.048.178.178 0 0 1-.048-.132v-8.04c0-.056.016-.1.048-.132a.192.192 0 0 1 .132-.048h1.152a.17.17 0 0 1 .126.048.168.168 0 0 1 .054.132v4.872l2.22-2.496a.286.286 0 0 1 .216-.096h1.398c.08 0 .128.022.144.066.02.044.004.094-.048.15l-2.202 2.376Zm4.044-1.212h5.64a.17.17 0 0 1 .126.048.168.168 0 0 1 .054.132v.882a.18.18 0 0 1-.054.132.17.17 0 0 1-.126.048h-5.64a.192.192 0 0 1-.132-.048.192.192 0 0 1-.048-.132v-.882c0-.056.016-.1.048-.132a.192.192 0 0 1 .132-.048Zm12.396 1.536h.84a.17.17 0 0 1 .126.048.168.168 0 0 1 .054.132v.876c0 .056-.018.1-.054.132a.17.17 0 0 1-.126.048h-.84v1.608c0 .056-.018.1-.054.132a.17.17 0 0 1-.126.048h-1.152a.192.192 0 0 1-.132-.048.178.178 0 0 1-.048-.132v-1.608h-3.648a.192.192 0 0 1-.132-.048.178.178 0 0 1-.048-.132v-.954c0-.084.026-.16.078-.228l3.678-4.77c.064-.08.136-.12.216-.12h1.188a.17.17 0 0 1 .126.048.168.168 0 0 1 .054.132v4.836Zm-3.714 0h2.202v-2.844l-2.202 2.844Z" class="txt"/>
    </g>
  </g>
</svg>
